<svg width="115" height="41" viewBox="0 0 115 41" fill="none" xmlns="http://www.w3.org/2000/svg">
<path d="M42.8014 0C40.0949 0.00357939 37.4177 0.560335 34.9341 1.63608C32.4506 2.71183 30.2132 4.28386 28.3592 6.25566C27.9421 6.77279 28.576 7.50679 29.3225 7.01885L29.6353 6.76445L29.7021 6.71024C32.8484 4.21656 36.7271 2.82598 40.7412 2.75249C41.4877 2.87343 42.1425 6.08884 42.522 10.8598C45.8037 10.8611 49.0818 11.0785 52.335 11.5104C52.4727 12.6781 52.5853 13.8792 52.6687 15.1053C49.5992 14.8426 46.2545 14.6883 42.7472 14.6883C42.8264 16.5108 42.8681 18.4667 42.8681 20.5061C42.8681 22.5454 42.8264 24.5013 42.7472 26.3447C46.2545 26.3447 49.5992 26.1862 52.6687 25.9276C52.5853 27.1565 52.4741 28.3548 52.335 29.5225C49.0869 29.9461 45.8143 30.1537 42.5387 30.1439C42.1592 34.9316 41.5044 38.1303 40.7579 38.2513C36.5332 38.1839 32.4625 36.6541 29.2391 33.9224C28.501 33.5053 27.9046 34.2602 28.3675 34.7564C30.2218 36.7184 32.4567 38.2817 34.9355 39.3508C37.4144 40.4199 40.0852 40.9724 42.7847 40.9746C53.8906 40.9746 62.8946 31.7996 62.8946 20.4727C62.8946 9.14578 53.9073 0 42.8014 0Z" fill="#F05323"/>
<path d="M79.301 34.0392C82.2228 34.0195 85.0578 33.0433 87.3722 31.2599C89.6866 29.4764 91.3531 26.9839 92.1168 24.1636H87.5293C86.839 25.7754 85.6921 27.15 84.23 28.1178C82.7679 29.0857 81.0545 29.6044 79.301 29.6102C76.9538 29.4875 74.7432 28.4686 73.1251 26.7638C71.5071 25.0589 70.6051 22.7982 70.6051 20.4477C70.6051 18.0973 71.5071 15.8365 73.1251 14.1317C74.7432 12.4268 76.9538 11.408 79.301 11.2853C81.0534 11.2936 82.765 11.8145 84.2249 12.7838C85.6847 13.7531 86.8291 15.1284 87.5168 16.7402H92.1043C91.3414 13.9191 89.6752 11.4257 87.3607 9.64141C85.0462 7.85715 82.2109 6.88033 79.2885 6.86043C71.9277 6.86043 65.9431 12.9451 65.9431 20.4477C65.9431 27.9503 71.9068 34.0308 79.2885 34.0308" fill="#F05323"/>
<path d="M19.3425 34.035H23.6798V6.87288H19.3425C8.662 6.87288 0 15.7017 0 26.5949V34.035H4.33726V26.5949C4.33726 18.1414 11.0475 11.3227 19.3508 11.3227L19.3425 34.035Z" fill="#F05323"/>
<path d="M101.855 18.2457H99.3275V6.87288H94.9902V34.0391H99.3275V22.6663H101.855C102.338 25.8144 103.926 28.6876 106.335 30.7714C108.743 32.8552 111.815 34.0136 115 34.0391V29.6101C112.653 29.4874 110.442 28.4686 108.824 26.7637C107.206 25.0589 106.304 22.7981 106.304 20.4477C106.304 18.0972 107.206 15.8364 108.824 14.1316C110.442 12.4268 112.653 11.4079 115 11.2852V6.87288C111.815 6.89757 108.743 8.05566 106.334 10.1396C103.925 12.2236 102.337 15.0973 101.855 18.2457" fill="#F05323"/>
</svg>
